<?xml version="1.0" standalone="no"?>
<!DOCTYPE svg PUBLIC "-//W3C//DTD SVG 1.1//EN" "http://www.w3.org/Graphics/SVG/1.1/DTD/svg11.dtd" >
<svg xmlns="http://www.w3.org/2000/svg" xmlns:xlink="http://www.w3.org/1999/xlink" version="1.1">
<metadata></metadata>
<defs>
<font id="cera_round_pro_demoblack" horiz-adv-x="1284" >
<font-face units-per-em="2048" ascent="1655" descent="-393" />
<missing-glyph horiz-adv-x="573" />
<glyph horiz-adv-x="0" />
<glyph horiz-adv-x="682" />
<glyph unicode=" "  horiz-adv-x="573" />
<glyph unicode="&#x09;" horiz-adv-x="573" />
<glyph unicode="&#xa0;" horiz-adv-x="573" />
<glyph unicode="!" horiz-adv-x="761" d="M174 182q0 87 59 147t150 60q88 0 146.5 -60t58.5 -147q0 -88 -58 -147.5t-147 -59.5q-91 0 -150 59t-59 148zM178 1161q-5 95 50.5 155t152.5 60q96 0 152 -60t51 -155l-29 -518q-5 -76 -53 -130t-121 -54q-76 0 -124.5 54t-51.5 130z" />
<glyph unicode="," horiz-adv-x="552" d="M43 -236q0 28 21.5 140.5t21.5 195.5q0 99 52.5 158t140.5 59t140 -57t52 -154q0 -58 -25.5 -159.5t-60.5 -186.5q-35 -83 -76.5 -118t-101.5 -35q-71 0 -117.5 44t-46.5 113z" />
<glyph unicode="-" horiz-adv-x="696" d="M61 666q0 63 42 105t106 42h278q64 0 106 -42t42 -105t-42 -105.5t-106 -42.5h-278q-64 0 -106 42.5t-42 105.5z" />
<glyph unicode="." horiz-adv-x="552" d="M47 205q0 97 66.5 163t167.5 66q97 0 162 -66.5t65 -162.5q0 -97 -64.5 -163.5t-162.5 -66.5q-102 0 -168 66t-66 164z" />
<glyph unicode="0" horiz-adv-x="1327" d="M102 686q0 321 150.5 505.5t411.5 184.5t411 -184.5t150 -505.5q0 -327 -151.5 -519t-409.5 -192t-410 192t-152 519zM463 684q0 -385 201 -385q200 0 200 385q0 189 -48.5 279t-151.5 90t-152 -90t-49 -279z" />
<glyph unicode="1" horiz-adv-x="849" d="M23 1063q0 49 26 88t72 61l315 148q43 16 74 16q72 0 124 -52t52 -124v-1046q0 -87 -45 -133t-131 -46t-131 46t-45 133v790l-80 -37q-31 -14 -66 -14q-70 0 -117.5 50t-47.5 120z" />
<glyph unicode="2" horiz-adv-x="1226" d="M88 172q0 84 78 147l387 314q106 87 144 142.5t38 125.5q0 71 -37.5 111.5t-103.5 40.5q-96 0 -129 -99q-13 -50 -16 -67q-13 -69 -61 -109.5t-116 -40.5q-77 0 -127.5 53.5t-50.5 135.5q0 51 19 116q44 151 179.5 242.5t313.5 91.5q212 0 351 -127.5t139 -322.5 q0 -135 -77 -249.5t-271 -270.5l-89 -70h308q77 0 126.5 -47.5t49.5 -120.5t-49.5 -120.5t-126.5 -47.5l-703 -2q-73 0 -124.5 51t-51.5 123z" />
<glyph unicode="3" horiz-adv-x="1140" d="M47 287q0 66 47.5 112.5t114.5 46.5t110 -49q49 -52 95 -75t102 -23q83 0 132.5 40.5t49.5 109.5q0 72 -56.5 105.5t-176.5 33.5h-31q-70 0 -116 44.5t-46 112.5q0 42 19.5 74.5t70.5 73.5l175 141h-289q-69 0 -115.5 45.5t-46.5 114.5q0 67 46.5 112.5t115.5 45.5h614 q72 0 124 -52t52 -124q0 -85 -86 -156l-200 -164q138 -39 222.5 -149t84.5 -256q0 -133 -69 -242t-190.5 -171.5t-269.5 -62.5q-139 0 -257.5 57t-196.5 161q-29 43 -29 94z" />
<glyph unicode="4" horiz-adv-x="1220" d="M25 377q0 37 16 74l352 817q21 48 65 78t97 30q72 0 124 -52t52 -124q0 -27 -10 -57l-262 -619h233v125q0 77 50 127.5t126 50.5q75 0 125.5 -51t50.5 -127v-125h13q72 0 119 -49t47 -113q0 -63 -47 -112t-119 -49h-13v-47q0 -76 -50.5 -127.5t-125.5 -51.5t-125.5 51.5 t-50.5 127.5v47h-491q-72 0 -124 52t-52 124z" />
<glyph unicode="5" horiz-adv-x="1167" d="M55 281q0 67 47 114t115 47q71 0 117 -49q87 -94 196 -94q89 0 142 41.5t53 110.5q0 71 -56.5 104t-176.5 33h-144q-76 0 -127 51t-51 127v408q0 76 51 127t127 51h520q70 0 116 -45t46 -113q0 -69 -46.5 -114.5t-115.5 -45.5h-364v-143h108q203 0 338 -124.5t135 -311.5 q0 -206 -153.5 -343t-386.5 -137q-141 0 -260 53.5t-197 153.5q-33 45 -33 99z" />
<glyph unicode="6" horiz-adv-x="1167" d="M63 479q0 121 62.5 239.5t204.5 266.5l293 305q86 86 157 86q72 0 124 -47t52 -112q0 -68 -55 -123l-156 -158q154 -36 256.5 -165.5t102.5 -295.5q0 -207 -152 -353.5t-368 -146.5q-143 0 -263 67t-189 183t-69 254zM412 477q0 -75 50 -126.5t122 -51.5t122 51.5 t50 126.5q0 74 -49.5 124t-122.5 50t-122.5 -50t-49.5 -124z" />
<glyph unicode="7" horiz-adv-x="1105" d="M82 1194q0 67 46.5 112.5t115.5 45.5h641q72 0 124 -52t52 -124q0 -44 -19 -78l-577 -1037q-24 -39 -64 -62.5t-86 -23.5q-72 0 -124 52.5t-52 124.5q0 43 23 84l448 798h-366q-69 0 -115.5 45.5t-46.5 114.5z" />
<glyph unicode="8" horiz-adv-x="1218" d="M82 371q0 222 233 327q-174 118 -174 308q0 117 62.5 202t167 126.5t239.5 41.5q134 0 238.5 -41.5t166.5 -126.5t62 -202q0 -190 -174 -308q234 -105 234 -327q0 -183 -148.5 -289.5t-378.5 -106.5q-232 0 -380 106.5t-148 289.5zM430 385q0 -57 45.5 -93t134.5 -36 q88 0 133 36t45 93t-45 96t-135 72q-88 -33 -133 -72t-45 -96zM463 989q0 -44 36 -76.5t111 -70.5q76 38 111 70.5t35 78.5q0 48 -42 78.5t-104 30.5q-63 0 -105 -30.5t-42 -80.5z" />
<glyph unicode="9" horiz-adv-x="1167" d="M63 877q0 136 69.5 251t189.5 181.5t262 66.5q143 0 262.5 -67t188.5 -183t69 -254q0 -121 -62.5 -239t-203.5 -266l-293 -306q-86 -86 -158 -86t-124 47.5t-52 112.5q0 68 55 123l156 158q-154 36 -256.5 165.5t-102.5 295.5zM412 874q0 -74 49.5 -124t122.5 -50 t122.5 50t49.5 124q0 75 -50 127t-122 52t-122 -52t-50 -127z" />
<glyph unicode="?" horiz-adv-x="933" d="M41 1065q0 54 45 125q57 90 150.5 138t212.5 48q183 0 303 -97t120 -243q0 -69 -34.5 -129t-110.5 -123q-74 -63 -107.5 -106.5t-37.5 -81.5l-2 -14q-7 -54 -53 -88.5t-109 -34.5q-69 0 -117.5 43.5t-48.5 105.5v17q0 51 26 89.5t117 121.5q70 62 90.5 89.5t20.5 57.5 q0 29 -20.5 49.5t-49.5 20.5q-26 0 -46.5 -14t-47.5 -48q-37 -46 -69 -65t-74 -19q-66 0 -112 46t-46 112zM217 182q0 87 59 147t150 60q88 0 146.5 -60t58.5 -147q0 -88 -58 -147.5t-147 -59.5q-91 0 -150 59t-59 148z" />
<glyph unicode="A" horiz-adv-x="1351" d="M66 143q0 39 18 86l424 1031q47 116 168 116t168 -116l424 -1031q18 -46 18 -86q0 -72 -49.5 -120t-124.5 -48q-116 0 -166 127l-28 72h-484l-28 -72q-50 -127 -166 -127q-75 0 -124.5 48t-49.5 120zM539 457h274l-137 395z" />
<glyph unicode="B" horiz-adv-x="1275" d="M133 178v996q0 76 50.5 127t127.5 51h310q199 0 327.5 -112.5t128.5 -287.5q0 -136 -82 -227q107 -43 166.5 -126.5t59.5 -197.5q0 -175 -129.5 -288t-327.5 -113h-453q-77 0 -127.5 51t-50.5 127zM471 297h270q65 0 100.5 31t35.5 88t-35.5 88t-100.5 31h-270v-238z M471 817h127q62 0 98.5 32t36.5 87t-36.5 87t-98.5 32h-127v-238z" />
<glyph unicode="C" horiz-adv-x="1480" d="M66 676q0 146 56.5 276t154 223t233 147t287.5 54q155 0 293 -59.5t227 -165.5q51 -57 51 -125q0 -66 -47.5 -113t-114.5 -47q-72 0 -135 66q-112 121 -276 121q-163 0 -266 -106t-103 -273t102.5 -271t266.5 -104q156 0 274 121q62 65 135 65q67 0 114.5 -46.5 t47.5 -112.5q0 -59 -51 -125q-89 -106 -227 -166t-293 -60q-152 0 -287.5 54.5t-232 147.5t-153 223t-56.5 276z" />
<glyph unicode="D" horiz-adv-x="1406" d="M133 178v996q0 76 50.5 127t127.5 51h293q215 0 383 -84.5t261 -238t93 -349.5t-94 -351.5t-262.5 -242t-380.5 -86.5h-293q-77 0 -127.5 51t-50.5 127zM485 317h117q170 0 274.5 100t104.5 263q0 164 -101 258t-278 94h-117v-715z" />
<glyph unicode="E" horiz-adv-x="1179" d="M133 178v996q0 76 50.5 127t127.5 51h619q70 0 116 -45t46 -113q0 -69 -46.5 -114.5t-115.5 -45.5h-445v-186h283q64 0 107 -42.5t43 -105.5t-43 -105t-107 -42h-283v-236h469q70 0 116 -44.5t46 -112.5q0 -69 -46.5 -114.5t-115.5 -45.5h-643q-77 0 -127.5 51t-50.5 127 z" />
<glyph unicode="F" horiz-adv-x="1107" d="M133 154v1020q0 76 50.5 127t127.5 51h598q70 0 116 -45t46 -113q0 -69 -46.5 -114.5t-115.5 -45.5h-424v-258h318q70 0 116 -45t46 -113q0 -69 -46.5 -114t-115.5 -45h-318v-305q0 -77 -50 -128t-126 -51t-126 51t-50 128z" />
<glyph unicode="G" horiz-adv-x="1529" d="M66 676q0 196 96.5 356.5t265 252t373.5 91.5q125 0 242.5 -39t199.5 -108q66 -60 95.5 -108t29.5 -97q0 -64 -47.5 -111t-112.5 -47q-41 0 -73.5 17t-71.5 57q-110 113 -268 113q-167 0 -268 -102.5t-101 -274.5q0 -177 106 -282t283 -105q192 0 297 121v63h-178 q-67 0 -112.5 43.5t-45.5 108.5t45.5 108t112.5 43h352q76 0 127 -51t51 -127v-147q0 -105 -51 -181q-91 -132 -260 -213.5t-352 -81.5q-205 0 -373.5 92t-265 252.5t-96.5 356.5z" />
<glyph unicode="H" horiz-adv-x="1464" d="M133 158v1036q0 78 50 130t126 52t126 -52t50 -130v-336h494v340q0 78 49.5 128t126.5 50t126.5 -50t49.5 -128v-1040q0 -78 -50.5 -130.5t-125.5 -52.5t-125.5 52.5t-50.5 130.5v383h-494v-383q0 -78 -50.5 -130.5t-125.5 -52.5t-125.5 52.5t-50.5 130.5z" />
<glyph unicode="I" horiz-adv-x="618" d="M133 154v1044q0 77 50 127.5t126 50.5t126 -50.5t50 -127.5v-1044q0 -77 -50 -128t-126 -51t-126 51t-50 128z" />
<glyph unicode="J" horiz-adv-x="815" d="M-6 139q0 63 46.5 107.5t113.5 44.5q14 0 39 -1t36 -1q44 0 72.5 26.5t28.5 67.5v815q0 77 50 127.5t126 50.5t126 -50.5t50 -127.5v-807q0 -416 -471 -416q-77 0 -123 21q-43 20 -68.5 59.5t-25.5 83.5z" />
<glyph unicode="K" horiz-adv-x="1421" d="M133 154v1044q0 77 50 127.5t126 50.5q75 0 125.5 -51t50.5 -127v-1044q0 -76 -50.5 -127.5t-125.5 -51.5t-125.5 51.5t-50.5 127.5zM549 713q0 57 43 106l426 504q47 53 125 53q65 0 112.5 -48.5t47.5 -115.5q0 -57 -46 -112l-331 -391l362 -465q39 -51 39 -101 q0 -66 -50.5 -117t-117.5 -51q-83 0 -139 72l-428 549q-43 52 -43 117z" />
<glyph unicode="L" horiz-adv-x="1093" d="M133 178v1020q0 71 50.5 124.5t125.5 53.5q76 0 126 -50.5t50 -127.5v-881h420q69 0 114.5 -45t45.5 -114t-45.5 -113.5t-114.5 -44.5h-594q-77 0 -127.5 51t-50.5 127z" />
<glyph unicode="M" horiz-adv-x="1642" d="M133 154v1040q0 78 50 130t126 52q54 0 94.5 -29.5t83.5 -99.5l334 -536l334 536q43 70 83.5 99.5t94.5 29.5q76 0 126 -52t50 -130v-1040q0 -76 -50.5 -127.5t-125.5 -51.5t-125.5 51.5t-50.5 127.5v473l-176 -281q-37 -58 -73.5 -83t-86.5 -25q-49 0 -85.5 24.5 t-73.5 83.5l-177 281v-473q0 -76 -50.5 -127.5t-125.5 -51.5t-125.5 51.5t-50.5 127.5z" />
<glyph unicode="N" horiz-adv-x="1464" d="M133 154v1044q0 75 49.5 126.5t122.5 51.5q34 0 60 -7.5t51.5 -29.5t34 -31.5t36.5 -43.5l492 -607v541q0 76 50.5 127t125.5 51t125.5 -51t50.5 -127v-1044q0 -75 -49.5 -127t-122.5 -52q-42 0 -76.5 16.5t-51 33.5t-45.5 52q-6 7 -9 11l-492 608v-542 q0 -76 -50.5 -127.5t-125.5 -51.5t-125.5 51.5t-50.5 127.5z" />
<glyph unicode="O" horiz-adv-x="1589" d="M66 676q0 194 96 354.5t263 253t368 92.5q202 0 370 -93t264.5 -253.5t96.5 -353.5q0 -145 -57 -275t-154.5 -223.5t-233 -148t-286.5 -54.5t-286 54.5t-231.5 148t-153 223.5t-56.5 275zM426 676q0 -169 101.5 -273t267.5 -104q163 0 265.5 105.5t102.5 271.5 q0 164 -103.5 270.5t-264.5 106.5q-164 0 -266.5 -105t-102.5 -272z" />
<glyph unicode="P" horiz-adv-x="1241" d="M133 154v1020q0 76 50.5 127t127.5 51h353q232 0 377 -129t145 -336q0 -204 -146.5 -335.5t-375.5 -131.5h-179v-266q0 -76 -50.5 -127.5t-125.5 -51.5t-125.5 51.5t-50.5 127.5zM485 727h181q73 0 117 44t44 116q0 71 -44 114t-117 43h-181v-317z" />
<glyph unicode="Q" horiz-adv-x="1589" d="M66 676q0 194 96 354.5t263 253t368 92.5q202 0 370 -93t264.5 -253.5t96.5 -353.5q0 -154 -63.5 -289.5t-176.5 -232.5q135 -170 306.5 -250t400.5 -80q25 0 51 1t31 1q66 0 104.5 -37t38.5 -100q0 -84 -72 -125q-68 -39 -219 -39q-289 0 -530 123.5t-402 353.5 q-94 -27 -200 -27q-151 0 -286 54.5t-231.5 148t-153 223.5t-56.5 275zM426 676q0 -168 101.5 -272.5t265.5 -104.5t267 105.5t103 271.5t-103.5 271.5t-266.5 105.5t-265 -105t-102 -272z" />
<glyph unicode="R" horiz-adv-x="1333" d="M133 154v1020q0 76 50.5 127t127.5 51h353q232 0 377 -128.5t145 -334.5q0 -114 -47.5 -208.5t-134.5 -158.5l178 -252q49 -70 49 -135q0 -64 -50 -112t-116 -48q-100 0 -158 88l-237 357h-6h-179v-266q0 -76 -50.5 -127.5t-125.5 -51.5t-125.5 51.5t-50.5 127.5z M485 727h181q73 0 117 44t44 116q0 71 -44 114t-117 43h-181v-317z" />
<glyph unicode="S" horiz-adv-x="1146" d="M90 268q1 68 48.5 112t109.5 44q41 0 80 -25q3 -2 33 -25.5t55.5 -40t73 -32.5t96.5 -16q139 0 139 98q0 44 -28.5 67t-108.5 58l-139 61q-169 74 -256 172.5t-87 235.5q0 179 135 289t339 110h9q78 0 145 -16q71 -18 117.5 -47t71 -49.5t42.5 -42.5q41 -46 41 -105 q0 -66 -48.5 -112t-109.5 -46q-48 0 -90 31q-7 4 -32.5 24t-39 28t-42 17t-60.5 9q-56 0 -88.5 -21t-32.5 -65q0 -37 25.5 -60.5t91.5 -50.5l155 -65q176 -74 261 -169t85 -239q0 -130 -66 -226.5t-177.5 -146t-251.5 -49.5q-114 0 -233.5 41.5t-190.5 108.5q-72 69 -72 143 z" />
<glyph unicode="T" horiz-adv-x="1204" d="M0 1194q0 67 46.5 112.5t115.5 45.5h880q70 0 116 -45t46 -113q0 -69 -46.5 -114.5t-115.5 -45.5h-264v-880q0 -76 -50.5 -127.5t-125.5 -51.5t-125.5 51.5t-50.5 127.5v880h-264q-69 0 -115.5 45.5t-46.5 114.5z" />
<glyph unicode="U" horiz-adv-x="1449" d="M127 573v625q0 76 50.5 127t125.5 51t125.5 -51t50.5 -127v-651q0 -113 67 -180.5t179 -67.5t179 67.5t67 180.5v651q0 77 50 127.5t126 50.5q75 0 125.5 -51t50.5 -127v-625q0 -264 -167 -431t-431 -167t-431 167t-167 431z" />
<glyph unicode="V" horiz-adv-x="1351" d="M66 1208q0 72 49.5 120t124.5 48q116 0 166 -127l270 -674l270 674q50 127 166 127q75 0 124.5 -48t49.5 -120q0 -52 -18 -86l-424 -1030q-50 -117 -168 -117t-168 117l-424 1030q-18 34 -18 86z" />
<glyph unicode="W" horiz-adv-x="2080" d="M57 1204q0 70 52 121t124 51q57 0 100 -29t62 -81l246 -674l225 651q48 133 174 133t174 -133l226 -651l243 668q20 55 63.5 85.5t100.5 30.5q72 0 124 -51t52 -121q0 -34 -18 -80l-399 -1030q-44 -119 -164 -119q-118 0 -162 119l-240 649l-239 -649q-44 -119 -162 -119 q-120 0 -164 119l-399 1030q-19 45 -19 80z" />
<glyph unicode="X" horiz-adv-x="1273" d="M74 145q0 61 51 129l293 410l-266 391q-52 73 -52 139t51 114t121 48q93 0 150 -80l215 -317l227 315q57 82 150 82q71 0 121.5 -48.5t50.5 -115.5q0 -72 -56 -145l-274 -383l297 -420q47 -67 47 -123q0 -66 -53 -116t-123 -50q-89 0 -143 76l-244 342l-244 -342 q-54 -76 -145 -76q-71 0 -122.5 50.5t-51.5 119.5z" />
<glyph unicode="Y" horiz-adv-x="1290" d="M80 1210q0 70 49 118t121 48q110 0 164 -102l231 -418l232 418q55 102 163 102q72 0 121 -48t49 -118q0 -59 -34 -112l-355 -586v-358q0 -76 -50.5 -127.5t-125.5 -51.5t-125.5 51.5t-50.5 127.5v358l-354 586q-35 55 -35 112z" />
<glyph unicode="Z" horiz-adv-x="1202" d="M25 160q0 51 43 106l598 768h-412q-69 0 -115.5 45.5t-46.5 114.5q0 67 46.5 112.5t115.5 45.5h737q67 0 114.5 -46.5t47.5 -111.5q0 -54 -43 -111l-592 -766h496q70 0 116 -44.5t46 -112.5q0 -69 -46.5 -114.5t-115.5 -45.5h-826q-69 0 -116 47t-47 113z" />
<glyph unicode="a" horiz-adv-x="1136" d="M61 291q0 145 106.5 226t295.5 81h215v16q0 63 -41.5 97t-116.5 34q-85 0 -162 -51q-53 -35 -94 -35q-63 0 -105 42t-42 102q0 77 76 137q134 109 366 109q227 0 349 -118t122 -337v-442q0 -75 -48.5 -125t-121.5 -50q-53 0 -95 27.5t-63 73.5q-112 -103 -286 -103 q-158 0 -256.5 87.5t-98.5 228.5zM418 305q0 -38 27 -59t77 -21q69 0 112.5 41.5t43.5 108.5v8h-166q-44 0 -69 -20.5t-25 -57.5z" />
<glyph unicode="b" d="M115 154v1228q0 76 50.5 127.5t125.5 51.5t125.5 -51.5t50.5 -127.5v-428q98 95 262 95q215 0 353.5 -152t138.5 -387t-138.5 -385t-353.5 -150q-181 0 -283 117q-18 -54 -60 -85.5t-99 -31.5q-74 0 -123 51.5t-49 127.5zM461 510q0 -96 54.5 -155.5t143.5 -59.5t145 60 t56 157q0 95 -56.5 156t-144.5 61t-143 -61t-55 -158z" />
<glyph unicode="c" horiz-adv-x="1132" d="M63 512q0 148 74 271.5t202.5 194.5t283.5 71q125 0 238.5 -54.5t170.5 -142.5q33 -50 33 -94q0 -64 -45.5 -110t-110.5 -46q-79 0 -121 51q-60 72 -161 72q-92 0 -147.5 -58t-55.5 -155t55.5 -155t147.5 -58t161 72q51 51 121 51q65 0 110.5 -46t45.5 -110 q0 -44 -27 -88q-66 -98 -173 -150.5t-242 -52.5q-155 0 -283.5 71t-202.5 194.5t-74 271.5z" />
<glyph unicode="d" d="M63 510q0 235 138.5 387t353.5 152q164 0 262 -95v428q0 77 50 128t126 51q75 0 125.5 -51.5t50.5 -127.5v-1230q0 -75 -48.5 -126t-121.5 -51q-58 0 -100.5 32t-60.5 85q-102 -117 -283 -117q-215 0 -353.5 150t-138.5 385zM424 512q0 -97 56 -157t145 -60t143.5 59.5 t54.5 155.5q0 97 -55 158t-143 61t-144.5 -61t-56.5 -156z" />
<glyph unicode="e" horiz-adv-x="1163" d="M63 512q0 229 154.5 383t384.5 154q214 0 356 -138.5t142 -347.5v-4q0 -75 -52.5 -122.5t-132.5 -47.5h-491q56 -117 227 -117q97 0 178 35q43 17 64 17q59 0 99 -40t40 -98q0 -85 -88 -135q-136 -76 -305 -76q-164 0 -295.5 69.5t-206 192.5t-74.5 275zM412 618h354 q-3 66 -50.5 110t-119.5 44q-67 0 -115 -41.5t-69 -112.5z" />
<glyph unicode="f" horiz-adv-x="753" d="M12 877q0 64 42.5 105.5t105.5 41.5h16v121q0 196 109 306t303 110q91 0 153 -33q36 -19 57 -55.5t21 -81.5q0 -66 -42.5 -106t-112.5 -40h-9q-60 0 -93.5 -35.5t-33.5 -99.5v-86h80q65 0 106.5 -41.5t41.5 -105.5q0 -63 -42 -105.5t-106 -42.5h-80v-575 q0 -76 -50.5 -127.5t-125.5 -51.5q-76 0 -126 51t-50 128v575h-16q-63 0 -105.5 42.5t-42.5 105.5z" />
<glyph unicode="g" d="M63 549q0 223 134.5 361.5t351.5 138.5q190 0 289 -117q18 53 60.5 85t100.5 32q73 0 121.5 -51t48.5 -128v-745q0 -249 -142.5 -383.5t-405.5 -134.5q-259 0 -439 127q-76 51 -76 131q0 64 45.5 109.5t110.5 45.5q42 0 92 -30q109 -68 230 -68q109 0 171 47.5t62 132.5 v37q-97 -94 -268 -94q-217 0 -351.5 140t-134.5 364zM424 553q0 -95 56.5 -156t144.5 -61t143 61t55 158q0 92 -53.5 147.5t-144.5 55.5t-146 -56.5t-55 -148.5z" />
<glyph unicode="h" horiz-adv-x="1222" d="M115 154v1228q0 76 50.5 127.5t125.5 51.5t125.5 -51.5t50.5 -127.5v-430q111 97 266 97q172 0 277.5 -115.5t105.5 -302.5v-477q0 -76 -50.5 -127.5t-125.5 -51.5t-125.5 51.5t-50.5 127.5v426q0 67 -42 109t-108 42t-106.5 -41.5t-40.5 -109.5v-426q0 -76 -50.5 -127.5 t-125.5 -51.5t-125.5 51.5t-50.5 127.5z" />
<glyph unicode="i" horiz-adv-x="581" d="M80 1386q0 86 61 144.5t148 58.5t149 -58.5t62 -144.5q0 -84 -62 -142t-149 -58t-148 58t-61 142zM115 154v716q0 77 50 128t126 51q75 0 125.5 -51.5t50.5 -127.5v-716q0 -77 -50 -128t-126 -51q-75 0 -125.5 51.5t-50.5 127.5z" />
<glyph unicode="j" horiz-adv-x="581" d="M-174 -229q0 66 42 108.5t107 42.5h7q78 0 105.5 36t27.5 140v772q0 77 50 128t126 51q75 0 125.5 -51.5t50.5 -127.5v-847q0 -196 -108 -306t-302 -110q-82 0 -139 26q-92 45 -92 138zM80 1386q0 86 61 144.5t148 58.5t149 -58.5t62 -144.5q0 -84 -62 -142t-149 -58 t-148 58t-61 142z" />
<glyph unicode="k" horiz-adv-x="1218" d="M115 154v1228q0 76 50.5 127.5t125.5 51.5q76 0 126 -51t50 -128v-1228q0 -76 -50.5 -127.5t-125.5 -51.5t-125.5 51.5t-50.5 127.5zM508 551q0 57 63 131l277 311q50 56 121 56q67 -1 112 -46.5t45 -111.5q0 -65 -51 -119l-207 -225l219 -307q39 -53 39 -105 q0 -67 -45.5 -113.5t-111.5 -46.5q-80 0 -125 60l-283 389q-53 72 -53 127z" />
<glyph unicode="l" horiz-adv-x="581" d="M115 154v1228q0 77 50 128t126 51q75 0 125.5 -51.5t50.5 -127.5v-1228q0 -76 -50.5 -127.5t-125.5 -51.5t-125.5 51.5t-50.5 127.5z" />
<glyph unicode="m" horiz-adv-x="1851" d="M115 154v716q0 76 49 127.5t123 51.5q53 0 93.5 -27t59.5 -74q115 101 277 101q188 0 297 -131q62 62 149.5 96.5t186.5 34.5q181 0 288 -113t107 -305v-477q0 -76 -50.5 -127.5t-125.5 -51.5t-125.5 51.5t-50.5 127.5v426q0 69 -40 110t-106 41q-64 0 -102.5 -41 t-38.5 -110v-426q0 -76 -50.5 -127.5t-125.5 -51.5t-125.5 51.5t-50.5 127.5v426q0 69 -40 110t-106 41q-64 0 -102.5 -41t-38.5 -110v-426q0 -76 -50.5 -127.5t-125.5 -51.5t-125.5 51.5t-50.5 127.5z" />
<glyph unicode="n" horiz-adv-x="1222" d="M115 154v716q0 76 49 127.5t123 51.5q53 0 93.5 -28t61.5 -75q118 103 283 103q178 0 284.5 -113.5t106.5 -304.5v-477q0 -76 -50.5 -127.5t-125.5 -51.5t-125.5 51.5t-50.5 127.5v426q0 67 -42 109t-108 42t-106.5 -41.5t-40.5 -109.5v-426q0 -76 -50.5 -127.5 t-125.5 -51.5t-125.5 51.5t-50.5 127.5z" />
<glyph unicode="o" horiz-adv-x="1243" d="M63 512q0 148 73.5 271.5t202 194.5t282.5 71t282.5 -71.5t202.5 -195t74 -270.5t-74 -270.5t-202.5 -195t-282.5 -71.5t-282.5 71t-202 194.5t-73.5 271.5zM424 512q0 -95 55 -154t144 -59q86 0 141 60t55 153q0 92 -55.5 152.5t-140.5 60.5q-88 0 -143.5 -59 t-55.5 -154z" />
<glyph unicode="p" d="M115 -215v1092q0 73 49.5 122.5t122.5 49.5q58 0 101 -31.5t61 -83.5q95 115 280 115q215 0 353.5 -150t138.5 -385t-138.5 -387t-353.5 -152q-164 0 -262 95v-285q0 -76 -50.5 -127t-125.5 -51t-125.5 51t-50.5 127zM461 514q0 -97 55 -158t143 -61t144.5 61t56.5 156 q0 97 -56 157t-145 60t-143.5 -59.5t-54.5 -155.5z" />
<glyph unicode="q" d="M63 514q0 235 138.5 385t353.5 150q181 0 283 -117q18 53 60.5 85t100.5 32q73 0 121.5 -51t48.5 -128v-1085q0 -76 -50.5 -127t-125.5 -51t-125.5 51t-50.5 127v285q-98 -95 -262 -95q-215 0 -353.5 152t-138.5 387zM424 512q0 -95 56.5 -156t144.5 -61t143 61t55 158 q0 96 -54.5 155.5t-143.5 59.5t-145 -60t-56 -157z" />
<glyph unicode="r" horiz-adv-x="829" d="M115 154v716q0 76 49 127.5t123 51.5q58 0 101.5 -32t60.5 -87q90 110 215 110q68 0 110.5 -43.5t42.5 -113.5t-43.5 -115.5t-118.5 -56.5q-188 -27 -188 -244v-313q0 -76 -50.5 -127.5t-125.5 -51.5t-125.5 51.5t-50.5 127.5z" />
<glyph unicode="s" horiz-adv-x="933" d="M33 215q0 59 41.5 100t101.5 41q47 0 94 -34q97 -68 199 -68q90 0 90 45q0 17 -13 27t-46 24l-115 47q-100 41 -161.5 82t-98.5 103.5t-37 144.5q0 152 108.5 238t288.5 86q87 0 172 -23.5t150 -66.5q67 -45 67 -121q0 -60 -41 -102t-100 -42q-34 0 -82 27 q-84 49 -164 49q-71 0 -71 -39q0 -19 14.5 -29.5t54.5 -25.5l103 -41q153 -62 226 -132t73 -190q0 -158 -118.5 -249t-305.5 -91q-226 0 -377 129q-53 44 -53 111z" />
<glyph unicode="t" horiz-adv-x="899" d="M0 877q0 64 42 105.5t105 41.5h29v92q0 77 50 127.5t126 50.5q75 0 125.5 -51t50.5 -127v-92h148q64 0 105.5 -41t41.5 -106q0 -63 -41.5 -105.5t-105.5 -42.5h-148v-303q0 -73 38 -104t128 -31h8q71 0 113.5 -40t42.5 -106q0 -45 -21 -80.5t-57 -54.5q-65 -35 -153 -35 q-220 0 -335.5 106.5t-115.5 309.5v338h-29q-63 0 -105 42.5t-42 105.5z" />
<glyph unicode="u" horiz-adv-x="1214" d="M106 477v393q0 76 51 127.5t126 51.5t125.5 -51.5t50.5 -127.5v-421q0 -65 42.5 -107.5t106.5 -42.5t106 42.5t42 107.5v421q0 77 50 128t126 51q75 0 125.5 -51.5t50.5 -127.5v-393q0 -223 -139.5 -362.5t-360.5 -139.5q-223 0 -362.5 139.5t-139.5 362.5z" />
<glyph unicode="v" horiz-adv-x="1171" d="M37 879q0 69 50.5 119.5t119.5 50.5q103 0 153 -99l226 -450l225 450q49 99 154 99q69 0 119.5 -50.5t50.5 -119.5q0 -43 -31 -101l-354 -694q-26 -52 -69.5 -80.5t-94.5 -28.5t-93.5 28.5t-68.5 80.5l-356 694q-31 58 -31 101z" />
<glyph unicode="w" horiz-adv-x="1761" d="M25 879q0 71 49.5 120.5t120.5 49.5q49 0 89 -25t62 -68l207 -426l158 383q56 136 170 136t170 -136l157 -383l207 426q22 43 62.5 68t89.5 25q71 0 120.5 -49.5t49.5 -120.5q0 -41 -23 -95l-338 -698q-54 -111 -159 -111q-106 0 -160 111l-176 379l-176 -379 q-54 -111 -160 -111t-160 111l-338 698q-22 52 -22 95z" />
<glyph unicode="x" horiz-adv-x="1132" d="M76 145q0 63 59 136l201 239l-180 230q-58 74 -58 129q0 71 50 120.5t120 49.5q83 0 142 -74l157 -197l166 197q62 74 141 74q70 0 120 -49.5t50 -120.5q0 -60 -57 -129l-188 -228l198 -241q60 -75 60 -136q0 -71 -49.5 -120.5t-120.5 -49.5q-85 0 -146 76l-174 211 l-176 -211q-61 -76 -145 -76q-70 0 -120 49.5t-50 120.5z" />
<glyph unicode="y" horiz-adv-x="1171" d="M23 -229q0 65 45 108t112 43h6q62 0 101.5 23.5t66.5 81.5l29 63l-326 705q-22 45 -22 84q0 69 50.5 119.5t119.5 50.5q51 0 92 -26.5t61 -72.5l224 -504l229 504q20 45 62 72t92 27q69 0 119.5 -50.5t50.5 -119.5q0 -37 -23 -84l-426 -850q-91 -180 -195 -259t-251 -79 q-88 0 -142 31q-36 20 -55.5 55.5t-19.5 77.5z" />
<glyph unicode="z" horiz-adv-x="978" d="M27 145q0 34 12 61t43 62l403 461h-290q-63 0 -105.5 42.5t-42.5 105.5q0 64 42.5 105.5t105.5 41.5h616q63 0 105 -41t42 -102q0 -64 -43 -113l-403 -473h319q65 0 106.5 -41.5t41.5 -106.5q0 -63 -42 -105t-106 -42h-657q-62 0 -104.5 42t-42.5 103z" />
<glyph unicode="&#xad;" horiz-adv-x="696" d="M61 666q0 63 42 105t106 42h278q64 0 106 -42t42 -105t-42 -105.5t-106 -42.5h-278q-64 0 -106 42.5t-42 105.5z" />
<glyph unicode="&#x2000;" horiz-adv-x="794" />
<glyph unicode="&#x2001;" horiz-adv-x="1589" />
<glyph unicode="&#x2002;" horiz-adv-x="794" />
<glyph unicode="&#x2003;" horiz-adv-x="1589" />
<glyph unicode="&#x2004;" horiz-adv-x="529" />
<glyph unicode="&#x2005;" horiz-adv-x="397" />
<glyph unicode="&#x2006;" horiz-adv-x="264" />
<glyph unicode="&#x2007;" horiz-adv-x="264" />
<glyph unicode="&#x2008;" horiz-adv-x="198" />
<glyph unicode="&#x2009;" horiz-adv-x="317" />
<glyph unicode="&#x200a;" horiz-adv-x="88" />
<glyph unicode="&#x2010;" horiz-adv-x="696" d="M61 666q0 63 42 105t106 42h278q64 0 106 -42t42 -105t-42 -105.5t-106 -42.5h-278q-64 0 -106 42.5t-42 105.5z" />
<glyph unicode="&#x2011;" horiz-adv-x="696" d="M61 666q0 63 42 105t106 42h278q64 0 106 -42t42 -105t-42 -105.5t-106 -42.5h-278q-64 0 -106 42.5t-42 105.5z" />
<glyph unicode="&#x2012;" horiz-adv-x="696" d="M61 666q0 63 42 105t106 42h278q64 0 106 -42t42 -105t-42 -105.5t-106 -42.5h-278q-64 0 -106 42.5t-42 105.5z" />
<glyph unicode="&#x2013;" horiz-adv-x="1146" d="M61 666q0 63 75 105t189 42h496q114 0 189 -42t75 -105t-75 -105.5t-189 -42.5h-496q-114 0 -189 42.5t-75 105.5z" />
<glyph unicode="&#x2014;" horiz-adv-x="2170" d="M61 666q0 63 150 105t378 42h992q228 0 378 -42t150 -105t-150 -105.5t-378 -42.5h-992q-228 0 -378 42.5t-150 105.5z" />
<glyph unicode="&#x202f;" horiz-adv-x="317" />
<glyph unicode="&#x205f;" horiz-adv-x="397" />
<glyph unicode="&#x25fc;" horiz-adv-x="1044" d="M0 0v1044h1044v-1044h-1044z" />
</font>
</defs>
</svg>
