<?xml version="1.0" standalone="no"?>
<!DOCTYPE svg PUBLIC "-//W3C//DTD SVG 20010904//EN"
 "http://www.w3.org/TR/2001/REC-SVG-20010904/DTD/svg10.dtd">
<svg version="1.0" xmlns="http://www.w3.org/2000/svg"
 width="556.000000pt" height="626.000000pt" viewBox="0 0 556.000000 626.000000"
 preserveAspectRatio="xMidYMid meet">

<g transform="translate(0.000000,626.000000) scale(0.100000,-0.100000)"
fill="#000000" stroke="none">
<path d="M2757 5533 c-8 -77 -26 -363 -33 -546 -7 -167 -6 -167 -75 -66 -21
32 -42 59 -46 61 -23 10 -123 176 -123 203 0 9 -4 14 -9 11 -9 -6 9 -67 36
-120 19 -38 62 -94 124 -164 28 -30 57 -76 69 -109 19 -52 21 -74 18 -218 l-3
-160 39 -95 c51 -122 51 -172 3 -285 -46 -109 -49 -134 -32 -255 8 -58 15
-111 15 -117 0 -23 -19 -14 -34 15 -21 40 -81 278 -111 442 -42 222 -60 295
-102 425 -25 77 -51 147 -58 155 -6 8 -21 40 -32 70 -56 149 -79 205 -130 323
-31 70 -60 127 -64 127 -13 0 -11 -6 11 -49 60 -119 195 -496 230 -646 36
-150 111 -725 96 -725 -19 0 -208 257 -257 350 -20 39 -24 61 -26 156 -1 62
-8 124 -15 139 -7 16 -44 47 -88 76 -42 26 -86 60 -99 75 -36 41 -72 128 -86
207 -11 58 -13 64 -14 32 0 -22 6 -65 14 -95 8 -30 12 -56 10 -58 -8 -8 -145
27 -185 48 l-41 21 22 -43 c17 -32 23 -61 23 -113 l1 -70 45 -27 c26 -14 52
-33 59 -42 12 -14 19 -11 63 29 28 25 54 45 58 45 4 0 24 -34 44 -75 19 -42
42 -78 50 -81 8 -3 13 -14 11 -26 -5 -22 21 -67 32 -58 3 3 11 -20 17 -50 9
-44 24 -70 68 -125 31 -39 73 -106 93 -150 20 -43 39 -82 44 -85 34 -23 85
-124 95 -188 1 -6 17 -27 34 -45 22 -23 31 -41 30 -60 -3 -30 -8 -33 -27 -14
-11 10 -13 10 -7 0 4 -7 3 -13 -2 -13 -5 0 -7 -11 -4 -25 2 -13 1 -32 -2 -41
-6 -16 -8 -16 -24 0 -10 9 -23 16 -28 16 -5 0 -2 -5 8 -10 15 -10 19 -41 5
-40 -4 0 -10 0 -13 0 -4 0 0 8 7 17 13 15 12 16 -9 11 -14 -4 -20 -2 -15 5 4
6 0 8 -9 5 -14 -6 -45 28 -40 45 1 4 -4 7 -11 7 -12 0 -262 254 -316 321 -10
13 -22 21 -25 18 -9 -9 158 -203 287 -334 120 -121 197 -209 197 -226 0 -17
-22 -9 -60 21 -20 16 -40 26 -44 22 -4 -4 -6 0 -4 8 2 8 -4 14 -12 15 -8 0
-16 5 -18 10 -3 11 -61 44 -77 44 -5 0 3 -7 18 -15 16 -9 27 -18 24 -21 -3 -2
-14 0 -25 6 -24 13 -42 14 -42 3 0 -8 61 -33 94 -39 28 -5 32 -11 12 -19 -9
-3 -40 3 -68 15 -28 11 -58 21 -66 21 -23 0 -82 23 -82 32 0 4 -8 8 -18 8 -9
0 -26 12 -37 27 -11 14 -26 32 -33 39 -7 7 -29 35 -49 61 -20 26 -40 50 -45
51 -5 2 -22 15 -38 29 -17 13 -35 21 -41 17 -8 -5 -9 -3 -4 6 6 10 4 12 -8 7
-11 -4 -17 -1 -17 7 0 7 -12 23 -26 37 -14 13 -32 35 -39 49 -11 22 -171 140
-189 140 -3 0 -72 40 -153 88 -184 110 -748 391 -760 379 -2 -2 50 -28 114
-58 171 -79 433 -221 551 -300 57 -38 107 -69 111 -69 4 0 54 -32 112 -71 57
-39 118 -78 134 -86 44 -23 115 -79 109 -86 -3 -3 -26 10 -51 29 -57 44 -100
66 -58 30 17 -14 48 -38 70 -53 22 -15 43 -33 47 -39 4 -6 40 -38 80 -70 125
-100 122 -107 -32 -73 -78 17 -208 49 -224 55 -9 3 -16 2 -16 -4 0 -5 19 -14
43 -19 l42 -11 -55 -2 -55 -1 55 -19 c30 -11 56 -20 58 -20 1 0 2 -4 2 -9 0
-5 -14 -14 -32 -22 -27 -11 -29 -14 -12 -20 10 -3 34 -1 51 7 21 8 35 9 39 3
3 -6 12 -8 18 -6 7 3 13 -1 13 -9 0 -10 -14 -14 -47 -14 -26 0 -95 -3 -153 -6
l-106 -7 -11 28 c-10 25 -7 32 22 62 19 20 42 33 57 33 35 0 22 8 -19 11 -19
2 -41 7 -48 12 -7 6 -15 7 -19 3 -3 -3 0 -6 7 -6 8 0 -3 -17 -24 -39 -23 -24
-34 -41 -27 -45 6 -4 11 -18 11 -31 l0 -23 -67 15 c-63 14 -105 33 -74 33 8 0
3 12 -13 30 -27 33 -42 101 -32 148 7 28 5 29 -41 40 -26 5 -63 15 -80 20
l-33 10 -24 -76 c-13 -42 -32 -105 -41 -140 l-18 -63 -66 -30 c-77 -35 -157
-57 -250 -69 l-66 -9 80 5 c44 2 91 7 105 9 72 12 89 18 84 27 -4 6 -1 8 7 6
8 -3 34 5 59 18 79 39 158 57 217 50 29 -3 102 -25 161 -47 l107 -41 136 7
c118 5 141 4 175 -12 34 -15 109 -66 124 -83 40 -46 133 -83 244 -95 33 -4 71
-11 85 -17 l26 -10 -25 -10 c-28 -11 -330 -3 -457 12 -271 33 -450 36 -653 11
-47 -5 -176 -19 -287 -30 -110 -12 -212 -25 -225 -30 -33 -14 -12 -13 130 5
86 11 213 17 392 18 283 1 333 -3 708 -65 186 -30 212 -36 212 -48 -1 -8 -166
-72 -291 -113 -126 -41 -217 -42 -306 -5 -34 15 -73 27 -86 27 -27 0 -85 -36
-137 -85 -63 -60 -110 -77 -228 -84 l-107 -6 68 -8 c38 -4 83 -5 102 -1 27 5
34 2 38 -13 3 -10 17 -68 32 -130 l27 -112 64 32 c44 22 67 41 75 60 17 39 49
50 95 31 51 -21 69 -13 50 23 -8 16 -30 46 -49 67 l-34 40 35 30 c34 30 39 31
116 28 44 -1 85 -7 90 -12 14 -14 46 -12 41 3 -5 11 95 52 155 63 85 15 120
16 121 3 1 -8 2 -18 4 -24 1 -5 3 -16 3 -22 1 -9 20 -13 57 -13 l54 0 -1 -35
c-1 -19 -5 -35 -10 -35 -5 0 -6 5 -3 10 3 6 -1 10 -9 10 -9 0 -16 -4 -16 -9 0
-6 -15 -12 -32 -15 -18 -2 1 -3 42 -1 63 2 87 9 149 39 117 58 163 60 104 4
-44 -41 -125 -89 -319 -189 -98 -50 -186 -98 -195 -106 -8 -7 -19 -13 -23 -13
-4 0 -31 -15 -59 -33 -29 -19 -88 -56 -132 -82 -44 -27 -108 -69 -142 -94 -34
-25 -88 -64 -119 -86 -92 -65 -271 -204 -317 -247 -23 -22 -6 -11 38 24 161
130 409 302 512 356 34 18 148 82 252 142 105 59 201 112 213 116 13 3 25 10
28 14 8 11 139 78 144 73 12 -12 -10 -43 -34 -48 -16 -3 -31 -13 -34 -21 -6
-16 5 -19 20 -4 5 5 36 12 69 14 33 3 53 3 45 0 -8 -2 -26 -21 -38 -40 -19
-29 -21 -39 -11 -48 9 -8 10 -8 5 2 -10 18 4 38 15 21 6 -10 9 -5 9 15 l0 30
34 -37 c18 -20 42 -37 53 -37 31 0 42 -46 25 -105 -8 -27 -19 -53 -24 -56 -5
-3 -9 -8 -7 -10 6 -11 -14 -49 -26 -49 -7 0 -35 23 -62 50 -36 37 -55 49 -67
44 -15 -6 -14 -10 12 -38 43 -47 72 -87 72 -102 0 -7 -16 -22 -35 -34 -19 -12
-34 -27 -32 -33 1 -7 -4 -11 -12 -9 -21 4 -43 -18 -31 -33 7 -8 4 -17 -11 -31
-20 -18 -20 -18 -11 7 9 22 5 30 -42 70 -36 33 -54 43 -62 35 -7 -7 4 -24 39
-56 l50 -46 -31 -54 c-30 -55 -54 -121 -33 -90 8 11 11 12 11 2 0 -10 3 -10
15 2 8 8 15 18 15 22 0 3 -7 1 -15 -6 -9 -8 -15 -9 -15 -2 0 6 5 14 10 17 6 4
7 11 4 17 -5 8 3 9 24 5 20 -4 34 -1 42 8 7 8 17 15 22 15 16 0 67 43 62 51
-3 5 2 6 11 3 10 -4 15 -2 13 6 -2 7 11 17 29 22 45 12 106 86 172 207 58 106
81 132 81 90 0 -46 -26 -109 -249 -604 -75 -164 -78 -172 -104 -240 -60 -155
-107 -285 -113 -310 -4 -16 -27 -88 -51 -160 -52 -152 -127 -424 -120 -431 3
-3 8 10 12 28 14 65 105 358 151 484 42 118 77 203 132 324 11 25 42 95 68
155 50 118 61 137 50 90 -5 -22 -4 -26 4 -15 5 8 10 29 10 46 0 18 9 42 20 55
18 21 19 22 14 4 -3 -11 9 5 26 35 16 30 54 93 83 140 28 47 58 98 66 113 8
15 21 27 29 27 13 0 14 -16 8 -102 -3 -57 -8 -141 -11 -188 l-5 -85 15 70 c8
39 24 112 36 163 12 53 19 107 15 125 -10 57 -9 151 3 193 6 24 28 59 51 83
22 23 40 50 40 60 0 22 16 37 22 21 1 -5 12 -7 24 -4 18 5 23 17 32 81 11 81
14 89 33 77 9 -5 10 -56 4 -218 -4 -116 -9 -229 -11 -251 -2 -22 0 -96 4 -165
l6 -125 7 85 c4 47 10 183 14 304 4 120 11 213 15 206 6 -10 9 -8 13 6 2 10 6
-3 7 -31 l2 -50 10 49 c5 27 15 57 22 67 11 16 13 13 24 -27 7 -24 17 -44 23
-44 5 0 8 -4 5 -8 -3 -5 1 -9 9 -9 8 0 15 6 15 12 0 6 9 29 21 51 11 22 18 29
15 17 -4 -24 9 -32 17 -10 2 6 2 3 0 -8 -3 -11 -7 -45 -10 -76 -6 -67 6 -99
133 -350 96 -190 112 -253 88 -347 -23 -87 -19 -123 19 -163 18 -18 53 -51 78
-71 45 -36 88 -104 104 -163 4 -16 11 -75 15 -130 l7 -100 1 89 c1 58 -6 130
-20 203 -18 91 -20 115 -10 125 9 9 47 13 116 13 l104 0 -18 25 c-9 14 -36 63
-60 110 -54 105 -111 186 -161 225 -20 17 -43 40 -49 51 -12 22 -47 22 -61 1
-9 -12 -42 37 -74 108 -24 56 -25 64 -19 174 8 126 20 126 34 1 l7 -65 2 54
c1 64 12 60 22 -7 l6 -47 2 58 c1 39 5 56 12 51 6 -3 9 -17 6 -30 -2 -13 0
-24 5 -24 12 0 7 128 -7 157 -8 17 -13 19 -24 10 -12 -10 -13 -8 -9 11 4 14 2
20 -5 15 -6 -4 -8 0 -5 9 4 8 -7 35 -23 59 -52 79 -33 106 30 41 69 -72 107
-118 200 -247 184 -253 318 -411 545 -642 94 -95 172 -170 174 -168 3 2 -49
59 -114 125 -135 136 -167 172 -256 287 -35 45 -109 141 -165 213 -57 72 -103
135 -103 140 0 6 -5 10 -10 10 -6 0 -15 11 -20 25 -5 14 -13 25 -18 25 -12 0
-82 97 -82 114 0 8 5 18 10 21 8 5 7 11 -1 21 -9 11 -8 14 4 14 10 0 14 6 11
15 -8 20 18 20 59 0 l32 -16 -24 21 c-21 18 -21 20 -4 20 10 0 24 -5 31 -12 9
-9 12 -5 12 20 0 29 3 32 29 32 23 0 34 -8 51 -35 12 -19 23 -35 26 -35 6 0
-68 134 -80 145 -6 6 -12 16 -14 24 -5 24 58 -21 102 -72 27 -32 36 -51 29
-55 -7 -4 -13 -25 -15 -47 -3 -34 0 -40 17 -40 13 0 21 8 23 23 4 29 12 28 55
-7 20 -15 50 -34 67 -41 37 -15 38 -26 3 -35 -22 -5 -25 -8 -12 -15 10 -6 34
-4 63 5 25 8 52 12 59 10 6 -2 38 -9 70 -15 l57 -11 0 -55 c0 -30 -7 -71 -15
-91 -14 -33 -14 -38 0 -46 8 -4 21 -14 27 -21 9 -10 19 -9 49 6 21 10 42 18
48 18 5 0 7 17 4 38 -3 23 1 44 10 56 13 18 17 18 88 -22 105 -58 138 -63 309
-50 122 9 159 8 235 -5 50 -8 99 -18 110 -22 18 -6 18 -5 3 5 -10 6 -59 20
-110 32 -86 19 -103 19 -224 9 -72 -7 -144 -9 -160 -6 -55 13 -113 45 -200
111 -102 78 -141 97 -248 119 -43 8 -90 22 -105 29 -35 19 -80 68 -125 138
-52 80 -98 117 -209 172 -105 51 -124 73 -54 63 47 -7 347 -121 507 -192 186
-84 378 -147 487 -160 23 -2 95 -18 160 -34 99 -25 244 -54 376 -76 15 -2 27
-1 27 3 0 4 -66 20 -147 36 -168 32 -484 120 -588 164 -117 49 -602 291 -615
307 -7 9 -10 19 -6 23 4 4 105 7 224 7 250 0 275 -6 370 -83 77 -62 112 -65
219 -18 129 57 224 48 383 -35 41 -22 66 -32 55 -23 -41 34 -187 97 -275 119
-50 13 -94 26 -98 29 -20 21 94 163 167 209 l36 22 -55 6 c-44 5 -59 2 -75
-11 -41 -36 -87 -50 -187 -60 -126 -13 -190 -31 -246 -69 -24 -17 -64 -38 -89
-47 -49 -19 -97 -14 -223 21 -50 14 -62 14 -134 -1 -43 -9 -93 -13 -109 -10
-17 4 -64 27 -104 52 -62 39 -84 47 -136 50 -90 7 -127 14 -127 24 0 15 69 21
365 30 195 6 311 14 355 25 36 8 122 26 191 40 131 26 234 54 227 60 -2 3 -42
-5 -89 -16 -173 -41 -326 -59 -518 -59 -187 0 -411 17 -411 31 0 4 60 37 132
74 145 73 144 73 304 49 37 -5 44 -3 70 26 16 18 43 47 59 65 39 41 87 55 194
55 46 0 82 2 79 5 -11 12 -159 6 -254 -10 -54 -9 -123 -28 -153 -41 -29 -13
-72 -24 -95 -24 -22 -1 -59 -7 -81 -15 -50 -18 -50 -18 -35 0 11 13 10 14 -5
8 -14 -5 -17 -3 -12 9 3 10 -1 19 -11 23 -13 5 -10 10 18 28 19 12 37 24 40
27 14 17 85 50 96 46 7 -3 11 0 8 7 -2 7 11 21 28 32 45 27 52 29 44 17 -3 -6
-2 -13 3 -17 6 -3 8 3 6 13 -2 15 25 36 123 97 70 43 172 106 227 140 55 34
179 101 275 149 96 48 164 84 150 81 -27 -8 -288 -131 -415 -197 -134 -69
-301 -169 -485 -290 -226 -149 -350 -213 -350 -180 0 11 65 71 103 95 15 10
25 23 21 29 -4 7 -3 8 4 4 7 -4 12 -2 12 3 0 6 6 11 13 11 8 0 22 8 31 19 16
17 16 19 -4 24 -22 6 -28 37 -6 37 8 0 17 7 20 16 5 14 4 15 -9 4 -8 -7 -26
-10 -40 -8 -22 5 -29 -1 -27 -22 0 -3 -7 -6 -17 -7 -16 -1 -15 7 10 93 27 93
67 164 93 164 7 0 21 -9 31 -20 10 -11 20 -18 23 -16 2 3 -6 15 -18 28 l-21
23 41 37 c29 26 51 38 72 38 41 0 96 28 104 52 8 26 8 78 0 115 -5 21 -2 34 9
43 14 12 25 5 80 -50 72 -71 60 -71 142 4 23 21 52 45 63 53 11 8 20 18 20 22
0 4 -39 38 -86 76 -57 45 -82 70 -73 75 6 5 9 15 6 25 -4 9 -3 14 2 11 19 -12
144 234 128 251 -3 2 -12 -17 -21 -43 -41 -122 -116 -201 -230 -242 -43 -16
-93 -41 -111 -55 -28 -23 -33 -33 -43 -107 -8 -52 -21 -100 -39 -131 -27 -51
-146 -176 -151 -160 -4 12 27 69 64 117 72 93 74 100 78 261 2 81 7 159 10
173 6 25 6 25 -4 2 -18 -41 -21 -75 -21 -186 1 -126 -8 -149 -99 -246 -50 -53
-89 -119 -90 -151 0 -8 -11 -38 -25 -66 -20 -40 -36 -56 -78 -78 -85 -45 -117
-74 -164 -147 -24 -37 -48 -66 -53 -63 -14 9 21 90 139 320 65 126 119 246
135 300 15 50 38 125 52 167 34 108 76 279 71 285 -3 2 -12 -22 -21 -54 -32
-116 -97 -310 -131 -386 -51 -118 -268 -477 -288 -477 -6 0 -8 64 -5 153 4
143 5 156 30 198 14 24 40 57 57 73 38 36 38 49 5 144 -19 55 -24 84 -19 113
4 21 5 41 3 43 -1 2 4 12 12 22 8 11 21 30 29 44 13 23 13 24 -2 12 -14 -12
-20 -9 -48 22 -43 49 -55 45 -24 -7 37 -64 33 -91 -20 -145 -25 -25 -48 -42
-51 -39 -4 3 1 30 10 58 14 40 15 54 5 63 -9 8 -10 8 -5 -1 8 -15 -11 -66 -23
-59 -5 4 -7 -13 -5 -36 4 -45 0 -43 -11 7 -6 26 -13 10 -46 -105 -46 -162 -68
-220 -80 -220 -12 0 -12 4 -13 145 -1 111 -4 126 -33 196 -63 152 -88 373 -87
749 1 146 7 325 13 398 7 74 11 136 8 138 -2 2 -7 -21 -10 -53z m240 -1325
c-2 -13 -4 -3 -4 22 0 25 2 35 4 23 2 -13 2 -33 0 -45z m76 -47 c-25 -76 -28
-80 -40 -59 -15 27 -18 132 -3 123 5 -3 22 1 37 9 16 8 29 13 31 11 2 -1 -9
-39 -25 -84z m687 -146 c0 -38 -36 -85 -64 -85 -12 0 -8 11 14 47 17 26 30 53
30 60 0 7 5 13 10 13 6 0 10 -16 10 -35z m-1150 -443 c0 -2 -7 -2 -14 1 -10 4
-13 1 -9 -9 3 -7 1 -14 -5 -14 -12 0 -22 24 -22 51 0 18 1 18 25 -3 14 -12 25
-24 25 -26z m800 -47 c-14 -8 -29 -14 -35 -14 -5 0 1 6 15 14 14 8 30 14 35
14 6 0 -1 -6 -15 -14z m-716 -41 c3 -8 2 -12 -4 -9 -6 3 -10 10 -10 16 0 14 7
11 14 -7z m-169 -34 c10 -11 14 -20 8 -20 -5 0 -18 9 -28 20 -10 11 -14 20 -8
20 5 0 18 -9 28 -20z m1000 -90 c-3 -5 -11 -10 -16 -10 -6 0 -7 5 -4 10 3 6
11 10 16 10 6 0 7 -4 4 -10z m40 -20 c-3 -5 -12 -10 -18 -10 -7 0 -6 4 3 10
19 12 23 12 15 0z m785 -347 c0 -88 -13 -96 -107 -65 -57 18 -61 23 -38 42 14
12 123 59 138 60 4 0 7 -17 7 -37z m-2261 -149 c8 -8 -7 -15 -43 -21 -32 -5
-36 -3 -36 16 0 20 4 21 38 15 20 -4 39 -8 41 -10z m-764 -74 c-3 -5 -14 -10
-23 -9 -14 0 -13 2 3 9 27 11 27 11 20 0z m925 -74 c0 -2 -6 -9 -14 -15 -11
-9 -16 -9 -22 0 -4 7 -3 9 4 5 6 -3 13 -2 17 4 6 10 15 14 15 6z m697 -168
c-3 -8 -6 -5 -6 6 -1 11 2 17 5 13 3 -3 4 -12 1 -19z m-30 -30 c-3 -7 -5 -2
-5 12 0 14 2 19 5 13 2 -7 2 -19 0 -25z m438 -28 c3 -5 2 -10 -4 -10 -5 0 -13
5 -16 10 -3 6 -2 10 4 10 5 0 13 -4 16 -10z m35 -40 c-19 -13 -30 -13 -30 0 0
6 10 10 23 10 18 0 19 -2 7 -10z m-1310 -374 c0 -8 -7 -16 -15 -20 -17 -6 -18
-4 -9 18 8 20 24 21 24 2z m1268 -182 c29 -20 28 -59 -3 -89 -33 -34 -45 -31
-45 8 0 17 -4 47 -9 65 -9 29 -8 32 12 32 13 0 33 -7 45 -16z"/>
<path d="M2411 5360 c15 -45 24 -54 15 -15 -4 17 -12 34 -17 40 -5 5 -4 -6 2
-25z"/>
<path d="M2431 5294 c0 -11 3 -14 6 -6 3 7 2 16 -1 19 -3 4 -6 -2 -5 -13z"/>
<path d="M2441 5260 c0 -8 4 -22 9 -30 12 -18 12 -2 0 25 -6 13 -9 15 -9 5z"/>
<path d="M3740 5160 c-11 -22 -18 -40 -15 -40 2 0 14 18 25 40 11 22 18 40 15
40 -2 0 -14 -18 -25 -40z"/>
<path d="M3706 5093 c-6 -14 -5 -15 5 -6 7 7 10 15 7 18 -3 3 -9 -2 -12 -12z"/>
<path d="M3667 5028 c-14 -24 -55 -75 -91 -115 -41 -45 -59 -69 -46 -66 10 3
18 10 17 16 -1 6 4 11 11 12 15 0 73 66 66 76 -2 4 2 9 10 12 12 5 72 107 62
107 -2 0 -15 -19 -29 -42z"/>
<path d="M3865 4923 c-75 -95 -158 -220 -153 -233 2 -7 26 21 52 61 27 41 70
103 96 139 54 74 63 90 56 90 -3 0 -26 -26 -51 -57z"/>
<path d="M3116 4788 c-9 -40 -19 -81 -22 -91 -3 -9 0 -19 8 -21 7 -2 45 -14
83 -25 96 -28 102 -33 87 -67 -7 -14 -11 -29 -8 -31 2 -2 14 22 25 54 26 70
40 100 63 135 10 14 18 30 18 35 0 5 -48 25 -107 43 -60 18 -113 35 -120 37
-7 3 -17 -23 -27 -69z"/>
<path d="M4091 4614 c0 -11 3 -14 6 -6 3 7 2 16 -1 19 -3 4 -6 -2 -5 -13z"/>
<path d="M3200 4528 c-50 -14 -57 -25 -27 -39 15 -7 27 -19 27 -27 0 -8 11 2
25 22 39 57 36 62 -25 44z"/>
<path d="M600 4430 c8 -5 20 -10 25 -10 6 0 3 5 -5 10 -8 5 -19 10 -25 10 -5
0 -3 -5 5 -10z"/>
<path d="M3061 4403 c0 -25 1 -26 9 -8 12 27 12 35 0 35 -5 0 -10 -12 -9 -27z"/>
<path d="M660 4405 c14 -8 30 -14 35 -14 6 0 -1 6 -15 14 -14 8 -29 14 -35 14
-5 0 1 -6 15 -14z"/>
<path d="M1910 4062 c45 -64 96 -126 83 -102 -13 24 -114 160 -119 160 -3 0
14 -26 36 -58z"/>
<path d="M4720 4070 c-8 -5 -10 -10 -5 -10 6 0 17 5 25 10 8 5 11 10 5 10 -5
0 -17 -5 -25 -10z"/>
<path d="M4660 4045 c-14 -8 -20 -14 -15 -14 6 0 21 6 35 14 14 8 21 14 15 14
-5 0 -21 -6 -35 -14z"/>
<path d="M2010 3931 c0 -6 4 -13 10 -16 6 -3 7 1 4 9 -7 18 -14 21 -14 7z"/>
<path d="M3578 3763 c-28 -33 -77 -140 -58 -128 6 3 10 12 10 19 0 7 15 38 34
69 36 60 39 69 14 40z"/>
<path d="M3616 3685 c-9 -26 -7 -32 5 -12 6 10 9 21 6 23 -2 3 -7 -2 -11 -11z"/>
<path d="M1327 3679 c6 -8 31 -25 55 -38 38 -20 36 -16 -8 16 -5 4 -21 14 -35
22 -21 12 -22 12 -12 0z"/>
<path d="M1460 3600 c8 -5 20 -10 25 -10 6 0 3 5 -5 10 -8 5 -19 10 -25 10 -5
0 -3 -5 5 -10z"/>
<path d="M4370 3465 c-68 -24 -61 -29 28 -19 42 6 52 10 52 25 0 22 2 23 -80
-6z"/>
<path d="M2180 3476 c0 -2 9 -6 20 -9 11 -3 18 -1 14 4 -5 9 -34 13 -34 5z"/>
<path d="M3679 3423 l-24 -28 28 24 c15 14 27 26 27 28 0 8 -8 1 -31 -24z"/>
<path d="M538 3353 c17 -2 47 -2 65 0 17 2 3 4 -33 4 -36 0 -50 -2 -32 -4z"/>
<path d="M1883 2823 c9 -2 25 -2 35 0 9 3 1 5 -18 5 -19 0 -27 -2 -17 -5z"/>
<path d="M1775 2805 c-40 -19 -20 -18 30 0 22 8 31 14 20 14 -11 0 -33 -7 -50
-14z"/>
<path d="M838 2783 c7 -3 16 -2 19 1 4 3 -2 6 -13 5 -11 0 -14 -3 -6 -6z"/>
<path d="M888 2773 c7 -3 16 -2 19 1 4 3 -2 6 -13 5 -11 0 -14 -3 -6 -6z"/>
<path d="M1966 2521 c-4 -5 3 -7 14 -4 23 6 26 13 6 13 -8 0 -17 -4 -20 -9z"/>
<path d="M2250 2496 c0 -2 7 -7 16 -10 8 -3 12 -2 9 4 -6 10 -25 14 -25 6z"/>
<path d="M2687 2455 c-11 -28 9 -41 23 -15 7 12 7 20 2 16 -6 -3 -12 -1 -14 6
-3 7 -7 4 -11 -7z"/>
<path d="M2265 2435 c-40 -18 -16 -19 26 0 19 8 27 14 19 14 -8 0 -28 -6 -45
-14z"/>
<path d="M3417 2420 c-3 -11 0 -23 5 -27 7 -3 8 -1 4 5 -11 19 5 14 21 -5 10
-13 10 -9 -2 15 -18 38 -21 39 -28 12z"/>
<path d="M2832 2390 c0 -14 2 -19 5 -12 2 6 2 18 0 25 -3 6 -5 1 -5 -13z"/>
<path d="M3735 2370 c3 -5 8 -10 11 -10 2 0 4 5 4 10 0 6 -5 10 -11 10 -5 0
-7 -4 -4 -10z"/>
<path d="M3463 2355 c0 -8 4 -12 9 -9 5 3 6 10 3 15 -9 13 -12 11 -12 -6z"/>
<path d="M2071 2327 l-25 -32 32 29 c33 31 37 36 25 35 -5 0 -19 -14 -32 -32z"/>
<path d="M3301 2284 c0 -11 3 -14 6 -6 3 7 2 16 -1 19 -3 4 -6 -2 -5 -13z"/>
<path d="M3270 2190 c0 -5 5 -10 10 -10 6 0 10 5 10 10 0 6 -4 10 -10 10 -5 0
-10 -4 -10 -10z"/>
<path d="M3263 2134 c-3 -8 -2 -19 3 -24 5 -5 9 1 9 16 0 28 -3 30 -12 8z"/>
<path d="M5000 2115 c19 -7 42 -13 50 -13 8 0 -1 6 -20 13 -19 7 -42 13 -50
13 -8 0 1 -6 20 -13z"/>
<path d="M3240 2103 c0 -13 5 -23 10 -23 6 0 10 -8 11 -17 0 -10 3 -13 5 -7 3
6 -2 24 -11 40 -13 26 -15 27 -15 7z"/>
<path d="M1717 1975 l-47 -43 45 -37 c27 -23 56 -60 73 -94 26 -53 29 -56 61
-53 18 2 38 -1 44 -7 14 -14 37 -14 37 -1 0 6 9 30 20 52 11 23 20 47 20 52 0
6 -23 25 -51 41 -28 17 -73 54 -99 83 -27 28 -50 52 -52 52 -2 -1 -24 -21 -51
-45z"/>
<path d="M1982 1905 c-5 -19 -9 -35 -7 -35 9 0 33 60 26 65 -4 2 -13 -11 -19
-30z"/>
<path d="M2793 1815 c0 -33 2 -45 4 -27 2 18 2 45 0 60 -2 15 -4 0 -4 -33z"/>
<path d="M2543 1725 c0 -95 -18 -176 -54 -246 -11 -22 -19 -54 -17 -71 3 -28
9 -33 54 -48 99 -34 180 -104 259 -225 21 -33 43 -63 49 -67 6 -4 8 -8 4 -8
-4 0 4 -30 18 -67 14 -37 27 -79 30 -93 2 -14 8 -43 14 -65 8 -36 9 -34 4 18
-7 73 -39 190 -53 195 -6 2 -9 7 -6 12 3 4 -2 21 -10 36 -8 16 -15 25 -15 20
0 -6 -11 13 -25 40 -14 27 -45 74 -70 103 -54 63 -75 127 -75 230 0 42 -6 98
-13 126 -12 45 -16 50 -50 58 l-36 9 -4 66 c-3 54 -4 50 -4 -23z"/>
<path d="M2503 1735 c0 -22 2 -30 4 -17 2 12 2 30 0 40 -3 9 -5 -1 -4 -23z"/>
<path d="M2802 1690 c0 -19 2 -27 5 -17 2 9 2 25 0 35 -3 9 -5 1 -5 -18z"/>
<path d="M2511 1663 c0 -6 -4 -20 -7 -30 -5 -14 -4 -15 5 -7 7 7 11 20 8 30
-3 11 -5 14 -6 7z"/>
<path d="M4179 1447 c16 -20 111 -101 111 -94 0 2 -28 28 -62 58 -35 29 -57
46 -49 36z"/>
<path d="M3856 1357 c3 -10 9 -15 12 -12 3 3 0 11 -7 18 -10 9 -11 8 -5 -6z"/>
<path d="M3026 1278 c-13 -28 90 -418 116 -443 8 -7 9 -4 3 10 -4 11 -27 103
-52 205 -64 264 -59 248 -67 228z"/>
<path d="M2912 750 c0 -19 2 -27 5 -17 2 9 2 25 0 35 -3 9 -5 1 -5 -18z"/>
<path d="M2921 694 c0 -11 3 -14 6 -6 3 7 2 16 -1 19 -3 4 -6 -2 -5 -13z"/>
<path d="M1841 644 c0 -11 3 -14 6 -6 3 7 2 16 -1 19 -3 4 -6 -2 -5 -13z"/>
</g>
</svg>
